# xmcd
#
# Track frame offsets:
#	150
#	10125
#	19925
#	31475
#	40800
#	53875
#	65350
#	75275
#	88050
#	97025
#	108675
#	118375
#	135875
#	147525
#	155750
#	166200
#	175825
#	186650
#	196825
#	212800
#	223050
#	236025
#	249300
#	261950
#	272250
#	284900
#	294175
#	305300
#	316325
#	326575
#
# Disc length: 4487 seconds
#
# Revision: 2
# Processed by: cddbd v1.5.1PL0 Copyright (c) Steve Scherf et al.
# Submitted via: EasyCDDAExtractor 7.0.6.1
#
DISCID=bf11851e
DTITLE=Various Artist - Rockin' Gold
DYEAR=1900
DGENRE=60's
TTITLE0=Ohio Express - Yummy, Yummy, Yummy 
TTITLE1=Lemon Pipers - Rice Is Nice
TTITLE2=1910 Fruitgum Company - Indian Giver
TTITLE3=Tommy Roe - Sheila
TTITLE4=Melanie - Nickle Song
TTITLE5=Mary Wells - My Guy
TTITLE6=Tommy Roe - Horray For Hazel
TTITLE7=New Congregation - Softly Whispering I Love You
TTITLE8=Kokomo - Asia Minor
TTITLE9=Dionne Warwick - Anyone Who Had A Heart
TTITLE10=Duanne Eddy - 40 Mikes Of Bad Road
TTITLE11=Melanie - Mr Tamberourine Man
TTITLE12=James Darren - Conscience
TTITLE13=Paul Petersen - Little Boy Sad
TTITLE14=The Marcels - Blue Moon
TTITLE15=1910 Fruitgum Company - 1, 2, 3 RedLight
TTITLE16=Lemon Pipers - Jelly Jungle
TTITLE17=The Chantays - Pipeline
TTITLE18=Melanie - What Have They Done To My Song Ma
TTITLE19=Bobby Fuller Four - I Fought The Law
TTITLE20=Gary Puckett - Woman, Woman
TTITLE21=Tommy Roe - The Folk Singer
TTITLE22=Gene Pitney - Half Heaven - Half Heartache
TTITLE23=Frankie Lyman and The Teenagers - Why Do Fools Fall In Love
TTITLE24=Dixie Cups - Chapel Of Love
TTITLE25=Various Artist - Hippy Hippy Shake
TTITLE26=Various Artist - Then He Kissed Me - Crystals
TTITLE27=Various Artist - My Dad - Paul Petersen
TTITLE28=Various Artist - Tequila - The Champs
TTITLE29=Various Artist - See You Later Alligator - Bill Haley &The Comets
EXTD=
EXTT0=
EXTT1=
EXTT2=
EXTT3=
EXTT4=
EXTT5=
EXTT6=
EXTT7=
EXTT8=
EXTT9=
EXTT10=
EXTT11=
EXTT12=
EXTT13=
EXTT14=
EXTT15=
EXTT16=
EXTT17=
EXTT18=
EXTT19=
EXTT20=
EXTT21=
EXTT22=
EXTT23=
EXTT24=
EXTT25=
EXTT26=
EXTT27=
EXTT28=
EXTT29=
PLAYORDER=
